<svg xmlns="http://www.w3.org/2000/svg" viewBox="0 0 512 512">
  <rect width="512" height="512" rx="96" fill="#14532d"/>
  <g transform="translate(256,240)" fill="none" stroke="#facc15" stroke-width="16" stroke-linecap="round" stroke-linejoin="round">
    <path d="M-70,-80 L-70,-40 C-70,50 0,90 0,90 C0,90 70,50 70,-40 L70,-80Z" fill="#facc15" fill-opacity="0.15"/>
    <path d="M-70,-80 L-70,-40 C-70,50 0,90 0,90 C0,90 70,50 70,-40 L70,-80Z"/>
    <path d="M-70,-55 C-70,-55 -110,-45 -110,-5 C-110,30 -75,35 -70,5"/>
    <path d="M70,-55 C70,-55 110,-45 110,-5 C110,30 75,35 70,5"/>
    <line x1="0" y1="90" x2="0" y2="120"/>
    <rect x="-45" y="120" width="90" height="16" rx="4" fill="#facc15" fill-opacity="0.3"/>
  </g>
  <text x="256" y="410" text-anchor="middle" font-family="system-ui,sans-serif" font-size="48" font-weight="800" fill="white">2026</text>
</svg>
